<?xml version="1.0" encoding="UTF-8"?>
<svg version="1.1" xmlns="http://www.w3.org/2000/svg" width="605" height="151">
<path d="M0 0 C28.31047225 9.4232515 28.31047225 9.4232515 39.4375 14.1875 C40.13214355 14.47109375 40.82678711 14.7546875 41.54248047 15.046875 C46.56277097 17.28536494 49.92757197 20.43652175 53 25 C54.20969502 28.43808059 54.55604619 30.53641728 53.24609375 33.984375 C48.3758091 43.28373385 41.78882185 52.02791519 35 60 C34.0123905 58.06753465 33.06186052 56.15256792 32.24609375 54.140625 C29.57678705 47.89934751 25.22361921 44.19675389 20 40 C20.89049189 35.76313335 22.79447661 32.69958761 25 29 C24.19949219 28.90203125 23.39898437 28.8040625 22.57421875 28.703125 C18.1145199 27.82580719 14.05110289 26.36568804 9.8125 24.75 C9.00619141 24.46253906 8.19988281 24.17507812 7.36914062 23.87890625 C3.76044197 22.50502098 1.48141671 21.57492265 -1.03125 18.57421875 C-2.0470225 15.8750491 -2.37153182 13.93689562 -2.3125 11.0625 C-2.30863281 10.24910156 -2.30476563 9.43570313 -2.30078125 8.59765625 C-1.94730777 5.54493072 -1.00199449 2.89778104 0 0 Z " fill="#4C4C4C" transform="translate(109,31)"/>
<path d="M0 0 C0.66 0 1.32 0 2 0 C2.20753906 0.556875 2.41507813 1.11375 2.62890625 1.6875 C5.831951 9.62140165 10.88162401 15.12635905 17 21 C15.02 23.97 13.04 26.94 11 30 C12.546875 30.391875 14.09375 30.78375 15.6875 31.1875 C32.68681292 35.86175984 32.68681292 35.86175984 36.859375 39.71875 C38.45805201 42.91610402 38.32476104 45.50761253 38.25 49.0625 C38.23453125 50.29097656 38.2190625 51.51945312 38.203125 52.78515625 C38 56 38 56 37 59 C23.25889341 56.53721972 9.51515452 50.28979906 -3.25 44.75 C-3.96889404 44.44570068 -4.68778809 44.14140137 -5.4284668 43.82788086 C-9.79210171 41.87521606 -12.85414765 39.71352496 -16 36 C-17.38892181 31.83323456 -17.87291632 28.24018831 -16.234375 24.03515625 C-12.85991467 17.65457456 -8.44914866 11.86159256 -4.20703125 6.0390625 C-2.7654186 4.05397464 -1.36086182 2.04129272 0 0 Z " fill="#4C4C4C" transform="translate(57,59)"/>
<path d="M0 0 C6.61902098 1.69718487 12.70003425 5.21216273 17.0625 10.5 C18.24486658 13.65297754 18.33974683 15.63051085 18 19 C16.79864532 21.5782892 15.24691964 23.85661242 13.625 26.1875 C13.2125 26.80302734 12.8 27.41855469 12.375 28.05273438 C11.26187162 29.70985936 10.13172807 31.35552148 9 33 C8.34 33.99 7.68 34.98 7 36 C7.69867188 36.14695313 8.39734375 36.29390625 9.1171875 36.4453125 C10.02726562 36.66960938 10.93734375 36.89390625 11.875 37.125 C12.77992187 37.33382812 13.68484375 37.54265625 14.6171875 37.7578125 C17 39 17 39 18.3125 41.6875 C19.03922103 45.18897406 19.1979035 48.30272851 19.125 51.875 C19.10695312 53.02742188 19.08890625 54.17984375 19.0703125 55.3671875 C19.04710937 56.23601562 19.02390625 57.10484375 19 58 C15.99177637 59.30991003 14.76893353 58.92517346 11.57421875 57.890625 C10.27390369 57.35512318 8.97840141 56.8078127 7.6875 56.25 C7.04876953 55.98445313 6.41003906 55.71890625 5.75195312 55.4453125 C4.46613744 54.9085789 3.18362129 54.36387191 1.90454102 53.8112793 C0.64281249 53.2738195 -0.62777124 52.75665725 -1.90649414 52.26098633 C-8.45923587 49.67004323 -12.36578475 45.33948334 -15.4375 39.0625 C-17.18514843 29.54752524 -15.47261179 22.2231497 -10.09375 14.1328125 C-8.10163001 11.38993087 -6.05741438 8.69403236 -4 6 C-2.62771837 4.02162732 -1.3103202 2.02007698 0 0 Z " fill="#06A7E5" transform="translate(81,24)"/>
<path d="M0 0 C3.04654144 1.06994319 6.08617903 2.15834144 9.125 3.25 C9.9809375 3.55035156 10.836875 3.85070312 11.71875 4.16015625 C20.18099899 7.21958473 26.53469426 10.97898783 31 19 C33.30561978 25.3707915 33.28321256 30.57999908 31 37 C29.76370898 39.46729875 28.30565815 41.72344283 26.75 44 C26.35176025 44.60086426 25.95352051 45.20172852 25.54321289 45.82080078 C22.5232139 50.33892868 19.34270163 54.71448509 16 59 C9.8883335 57.31929171 4.75525774 54.41085052 0 50.25 C-1.70682707 46.40963908 -1.89118098 43.10691097 -1 39 C1.0075379 35.08663946 3.46374123 31.58443423 6 28 C7.01444275 26.34208454 8.01914997 24.67800805 9 23 C5.7 22.01 2.4 21.02 -1 20 C-0.91621094 19.13117188 -0.83242187 18.26234375 -0.74609375 17.3671875 C-0.64425781 16.21476562 -0.54242188 15.06234375 -0.4375 13.875 C-0.33308594 12.73804687 -0.22867188 11.60109375 -0.12109375 10.4296875 C-0.00402596 7.1140257 -0.42574607 4.25249705 -1 1 C-0.67 0.67 -0.34 0.34 0 0 Z " fill="#0291C3" transform="translate(105,66)"/>
<path d="M0 0 C0.74521912 0.00045822 1.49043823 0.00091644 2.25823975 0.00138855 C3.82484541 0.00439754 5.39144845 0.01224311 6.95800781 0.0246582 C9.36534101 0.04301424 11.77229133 0.04516703 14.1796875 0.04492188 C15.70312835 0.04983381 17.22656658 0.05566071 18.75 0.0625 C19.83429291 0.06416924 19.83429291 0.06416924 20.94049072 0.06587219 C25.9932909 0.11438465 25.9932909 0.11438465 27.109375 1.23046875 C27.2421875 3.04296875 27.2421875 3.04296875 27.234375 5.23046875 C27.23824219 6.31328125 27.23824219 6.31328125 27.2421875 7.41796875 C27.109375 9.23046875 27.109375 9.23046875 26.109375 10.23046875 C23.81948719 10.38934967 21.52494059 10.48184948 19.23046875 10.546875 C18.20047508 10.57804665 18.20047508 10.57804665 17.14967346 10.60984802 C14.94884565 10.67541018 12.74789525 10.7342589 10.546875 10.79296875 C9.05792986 10.83614767 7.56899727 10.87976175 6.08007812 10.92382812 C2.42330947 11.03109805 -1.23359818 11.13234647 -4.890625 11.23046875 C-4.890625 12.88046875 -4.890625 14.53046875 -4.890625 16.23046875 C-4.06860596 16.23457764 -3.24658691 16.23868652 -2.3996582 16.24291992 C1.33324542 16.27586118 5.06451834 16.34650979 8.796875 16.41796875 C10.09044922 16.42376953 11.38402344 16.42957031 12.71679688 16.43554688 C13.96396484 16.46455078 15.21113281 16.49355469 16.49609375 16.5234375 C17.64295654 16.53914795 18.78981934 16.5548584 19.97143555 16.57104492 C24.04404414 17.42688525 25.55402272 19.00605317 28.109375 22.23046875 C28.73828125 25.859375 28.73828125 25.859375 28.671875 29.79296875 C28.67316406 31.09363281 28.67445313 32.39429688 28.67578125 33.734375 C28.03258891 37.70442425 27.3329848 38.9051488 24.109375 41.23046875 C20.23193935 42.6310392 16.164641 42.37437928 12.09765625 42.36328125 C10.94441109 42.36471634 10.94441109 42.36471634 9.76786804 42.36618042 C8.14822304 42.36685931 6.52857528 42.36502538 4.90893555 42.36083984 C2.42034878 42.35546545 -0.0680593 42.36080589 -2.55664062 42.3671875 C-4.13020873 42.3665271 -5.70377673 42.36524672 -7.27734375 42.36328125 C-8.39915291 42.3663176 -8.39915291 42.3663176 -9.54362488 42.36941528 C-14.77565877 42.34543498 -14.77565877 42.34543498 -15.890625 41.23046875 C-16.0234375 39.41796875 -16.0234375 39.41796875 -16.015625 37.23046875 C-16.01820313 36.50859375 -16.02078125 35.78671875 -16.0234375 35.04296875 C-15.890625 33.23046875 -15.890625 33.23046875 -14.890625 32.23046875 C-12.44453502 32.07066438 -10.02331442 31.97117428 -7.57421875 31.9140625 C-6.84316422 31.8932814 -6.11210968 31.87250031 -5.35890198 31.85108948 C-3.01540844 31.78551851 -0.67179961 31.72667443 1.671875 31.66796875 C3.25717355 31.62479067 4.84246029 31.58117662 6.42773438 31.53710938 C10.32149537 31.42982955 14.21537272 31.32858385 18.109375 31.23046875 C17.779375 29.58046875 17.449375 27.93046875 17.109375 26.23046875 C16.31764893 26.22635986 15.52592285 26.22225098 14.71020508 26.21801758 C11.11334248 26.18506721 7.51817025 26.11441832 3.921875 26.04296875 C2.67599609 26.03716797 1.43011719 26.03136719 0.14648438 26.02539062 C-10.15821996 25.77675165 -10.15821996 25.77675165 -13.19140625 22.8046875 C-16.55982056 17.70173341 -16.36903543 13.24974182 -15.890625 7.23046875 C-14.61478929 3.94015561 -13.87318423 2.74335924 -10.77050781 1.1237793 C-7.14949131 0.00057657 -3.75090808 -0.03770779 0 0 Z " fill="#4A4A4A" transform="translate(192.890625,54.76953125)"/>
<path d="M0 0 C3 0.25 3 0.25 5 2.25 C5.21200368 4.67777191 5.30399231 6.98854211 5.30078125 9.41796875 C5.30506638 10.13100662 5.3093515 10.84404449 5.31376648 11.57868958 C5.31951523 13.09094176 5.32000602 14.60322161 5.31567383 16.11547852 C5.31253559 18.41146261 5.33588759 20.70613052 5.36132812 23.00195312 C5.36360349 24.47395672 5.36430351 25.94596375 5.36328125 27.41796875 C5.372491 28.09740036 5.38170074 28.77683197 5.39118958 29.47685242 C5.34327904 34.5049798 4.32195175 37.87680359 2 42.25 C-3.75803297 46.08868865 -10.60230528 45.46200881 -17.3125 45.5 C-18.21162109 45.520625 -19.11074219 45.54125 -20.03710938 45.5625 C-26.06736688 45.59738218 -31.58355459 45.09294574 -37 42.25 C-40.69282821 38.330357 -40.48641332 33.93061181 -40.4375 28.8125 C-40.45748047 28.07451172 -40.47746094 27.33652344 -40.49804688 26.57617188 C-40.49343474 21.38752261 -39.54756992 18.27057924 -36 14.25 C-32.18822999 12.30824048 -29.06981893 12.01285893 -24.82421875 12.0546875 C-23.66728516 12.06113281 -22.51035156 12.06757812 -21.31835938 12.07421875 C-20.12017578 12.09097656 -18.92199219 12.10773437 -17.6875 12.125 C-15.8612207 12.13853516 -15.8612207 12.13853516 -13.99804688 12.15234375 C-10.99849726 12.17586963 -7.99934956 12.20874347 -5 12.25 C-5.02320313 11.55132812 -5.04640625 10.85265625 -5.0703125 10.1328125 C-5.08835937 9.22273438 -5.10640625 8.31265625 -5.125 7.375 C-5.14820313 6.47007813 -5.17140625 5.56515625 -5.1953125 4.6328125 C-4.88519731 0.84940724 -3.66944414 0.30578701 0 0 Z M-30 22.25 C-30.48003918 25.30285753 -30.48003918 25.30285753 -30.375 28.75 C-30.38273437 29.9153125 -30.39046875 31.080625 -30.3984375 32.28125 C-30.26695312 33.2609375 -30.13546875 34.240625 -30 35.25 C-26.89596635 37.31935577 -26.18099981 37.50517909 -22.65625 37.515625 C-21.82222656 37.51820312 -20.98820312 37.52078125 -20.12890625 37.5234375 C-18.82759766 37.51183594 -18.82759766 37.51183594 -17.5 37.5 C-16.63246094 37.50773437 -15.76492188 37.51546875 -14.87109375 37.5234375 C-14.03707031 37.52085938 -13.20304687 37.51828125 -12.34375 37.515625 C-11.58255859 37.51336914 -10.82136719 37.51111328 -10.03710938 37.50878906 C-7.68863254 37.36411311 -7.68863254 37.36411311 -5 35.25 C-4.77862607 32.62302936 -4.71837975 30.24106036 -4.8125 27.625 C-4.82603516 26.91859375 -4.83957031 26.2121875 -4.85351562 25.484375 C-4.8888896 23.73925872 -4.94269779 21.99453392 -5 20.25 C-8.60409919 20.19199172 -12.20807851 20.15640131 -15.8125 20.125 C-16.83666016 20.10824219 -17.86082031 20.09148437 -18.91601562 20.07421875 C-19.89892578 20.06777344 -20.88183594 20.06132813 -21.89453125 20.0546875 C-22.80050049 20.04421387 -23.70646973 20.03374023 -24.63989258 20.02294922 C-27.26936448 20.08834609 -27.26936448 20.08834609 -30 22.25 Z " fill="#4A4A4A" transform="translate(355,51.75)"/>
<path d="M0 0 C2.17088966 -0.00964947 4.3408097 -0.04063121 6.51147461 -0.07226562 C7.90014087 -0.07880133 9.2888139 -0.08404957 10.67749023 -0.08789062 C11.93843506 -0.09723633 13.19937988 -0.10658203 14.49853516 -0.11621094 C18.35788554 0.27560128 20.73774961 1.18226672 24.00952148 3.24023438 C27.33204953 8.74055392 27.41554749 13.68093296 27.25952148 19.99023438 C27.25436523 20.83972656 27.24920898 21.68921875 27.24389648 22.56445312 C27.1991988 26.10115743 27.13721865 28.85714288 26.00952148 32.24023438 C20.95056427 33.92655345 15.64788238 33.4654969 10.3503418 33.48046875 C8.28059099 33.49013597 6.21185027 33.52115377 4.14233398 33.55273438 C2.16620117 33.56046875 2.16620117 33.56046875 0.15014648 33.56835938 C-1.0509375 33.57770508 -2.25202148 33.58705078 -3.48950195 33.59667969 C-7.64937889 33.17314968 -10.28395674 32.14866912 -13.99047852 30.24023438 C-15.19304362 27.83510416 -15.26085622 26.11169873 -15.36547852 23.42773438 C-15.41446289 22.57566406 -15.46344727 21.72359375 -15.51391602 20.84570312 C-14.99047852 18.24023438 -14.99047852 18.24023438 -13.33032227 15.43554688 C-7.95582008 11.90283316 -2.44847356 12.71687965 3.82202148 12.92773438 C5.08723633 12.95029297 6.35245117 12.97285156 7.65600586 12.99609375 C10.77504767 13.0549436 13.89168051 13.13712068 17.00952148 13.24023438 C16.67952148 12.25023438 16.34952148 11.26023437 16.00952148 10.24023438 C13.21832058 8.84463392 10.80746457 9.0221515 7.68920898 8.92382812 C6.43237305 8.88193359 5.17553711 8.84003906 3.88061523 8.796875 C2.5619043 8.75755859 1.24319336 8.71824219 -0.11547852 8.67773438 C-1.45533602 8.63453926 -2.79518008 8.59092464 -4.13500977 8.546875 C-7.42005666 8.44052456 -10.70518132 8.33849629 -13.99047852 8.24023438 C-14.03289575 5.90728662 -14.03140789 3.57320871 -13.99047852 1.24023438 C-11.34329242 -1.40695172 -3.80583082 0.01024795 0 0 Z M-4.99047852 20.24023438 C-4.99047852 21.89023438 -4.99047852 23.54023437 -4.99047852 25.24023438 C2.26952148 25.24023438 9.52952148 25.24023438 17.00952148 25.24023438 C17.00952148 23.26023437 17.00952148 21.28023437 17.00952148 19.24023438 C13.53037208 19.21135624 10.05125318 19.1934775 6.57202148 19.17773438 C5.57879883 19.16935547 4.58557617 19.16097656 3.56225586 19.15234375 C2.61801758 19.14912109 1.6737793 19.14589844 0.70092773 19.14257812 C-0.17362061 19.13734131 -1.04816895 19.13210449 -1.94921875 19.12670898 C-3.98488057 19.01238629 -3.98488057 19.01238629 -4.99047852 20.24023438 Z " fill="#4B4B4B" transform="translate(378.990478515625,63.759765625)"/>
<path d="M0 0 C2.17088966 -0.00964947 4.3408097 -0.04063121 6.51147461 -0.07226562 C7.90014087 -0.07880133 9.2888139 -0.08404957 10.67749023 -0.08789062 C11.93843506 -0.09723633 13.19937988 -0.10658203 14.49853516 -0.11621094 C18.35790498 0.27560326 20.73807183 1.18160164 24.00952148 3.24023438 C27.27454494 8.686542 27.50043265 13.67862832 27.44702148 19.92773438 C27.47699219 21.1894043 27.47699219 21.1894043 27.50756836 22.4765625 C27.50692383 23.28931641 27.5062793 24.10207031 27.50561523 24.93945312 C27.50839478 26.03519653 27.50839478 26.03519653 27.51123047 27.15307617 C26.77166494 30.22974075 25.54061818 31.37257378 23.00952148 33.24023438 C19.91259766 33.74194336 19.91259766 33.74194336 16.30249023 33.73632812 C14.99344727 33.73697266 13.6844043 33.73761719 12.33569336 33.73828125 C11.31560181 33.72269165 11.31560181 33.72269165 10.27490234 33.70678711 C8.21360856 33.67796629 6.15491235 33.68615471 4.09350586 33.69921875 C-8.13435552 33.62118134 -8.13435552 33.62118134 -13.99047852 30.24023438 C-15.55599793 19.34506545 -15.55599793 19.34506545 -12.99047852 15.24023438 C-9.45034627 12.88014621 -7.97925897 13.00559794 -3.79125977 13.04492188 C-2.58276367 13.05136719 -1.37426758 13.0578125 -0.12915039 13.06445312 C1.76480469 13.08958984 1.76480469 13.08958984 3.69702148 13.11523438 C4.97125977 13.12425781 6.24549805 13.13328125 7.55834961 13.14257812 C10.70892776 13.16617796 13.85913132 13.19910244 17.00952148 13.24023438 C16.67952148 12.25023438 16.34952148 11.26023437 16.00952148 10.24023438 C13.21832058 8.84463392 10.80746457 9.0221515 7.68920898 8.92382812 C6.43237305 8.88193359 5.17553711 8.84003906 3.88061523 8.796875 C2.5619043 8.75755859 1.24319336 8.71824219 -0.11547852 8.67773438 C-1.45533602 8.63453926 -2.79518008 8.59092464 -4.13500977 8.546875 C-7.42005666 8.44052456 -10.70518132 8.33849629 -13.99047852 8.24023438 C-14.03289575 5.90728662 -14.03140789 3.57320871 -13.99047852 1.24023438 C-11.34329242 -1.40695172 -3.80583082 0.01024795 0 0 Z M-4.99047852 20.24023438 C-4.99047852 21.89023438 -4.99047852 23.54023437 -4.99047852 25.24023438 C2.26952148 25.24023438 9.52952148 25.24023438 17.00952148 25.24023438 C17.00952148 23.26023437 17.00952148 21.28023437 17.00952148 19.24023438 C13.53037208 19.21135624 10.05125318 19.1934775 6.57202148 19.17773438 C5.57879883 19.16935547 4.58557617 19.16097656 3.56225586 19.15234375 C2.61801758 19.14912109 1.6737793 19.14589844 0.70092773 19.14257812 C-0.17362061 19.13734131 -1.04816895 19.13210449 -1.94921875 19.12670898 C-3.98488057 19.01238629 -3.98488057 19.01238629 -4.99047852 20.24023438 Z " fill="#4A4A4A" transform="translate(458.990478515625,63.759765625)"/>
<path d="M0 0 C1.17626953 -0.00386719 2.35253906 -0.00773437 3.56445312 -0.01171875 C5.38686523 0.00568359 5.38686523 0.00568359 7.24609375 0.0234375 C9.07430664 0.00603516 9.07430664 0.00603516 10.93945312 -0.01171875 C12.70192383 -0.00591797 12.70192383 -0.00591797 14.5 0 C16.10016968 0.00507568 16.10016968 0.00507568 17.73266602 0.01025391 C21.10416759 0.45376243 22.99155384 1.34157766 25.68359375 3.3984375 C26.76849047 6.65312765 26.81683367 9.10386959 26.80859375 12.5234375 C26.81246094 14.13605469 26.81246094 14.13605469 26.81640625 15.78125 C26.68359375 18.3984375 26.68359375 18.3984375 25.68359375 19.3984375 C23.39207958 19.48634725 21.09786851 19.50537788 18.8046875 19.49609375 C17.77469383 19.49397133 17.77469383 19.49397133 16.72389221 19.49180603 C14.52291574 19.48619229 12.32203966 19.47363757 10.12109375 19.4609375 C8.63216292 19.45592426 7.14323051 19.45136105 5.65429688 19.44726562 C1.997363 19.43621843 -1.65951183 19.41894463 -5.31640625 19.3984375 C-4.96853917 21.37380495 -4.96853917 21.37380495 -4.31640625 23.3984375 C-1.52520534 24.79403795 0.88565067 24.61652038 4.00390625 24.71484375 C5.26074219 24.75673828 6.51757812 24.79863281 7.8125 24.84179688 C9.13121094 24.88111328 10.44992187 24.92042969 11.80859375 24.9609375 C13.14845126 25.00413262 14.48829531 25.04774723 15.828125 25.09179688 C19.1131719 25.19814731 22.39829656 25.30017558 25.68359375 25.3984375 C25.72601098 27.73138525 25.72452312 30.06546317 25.68359375 32.3984375 C22.96188843 35.12014282 14.8436847 33.6337678 11.18359375 33.6484375 C9.30027344 33.679375 9.30027344 33.679375 7.37890625 33.7109375 C-6.78050259 33.77030609 -6.78050259 33.77030609 -12.31640625 30.3984375 C-16.7060881 24.46984419 -15.90639801 17.44556128 -15.31640625 10.3984375 C-14.71256487 7.35910256 -14.08463699 6.0507836 -12.31640625 3.3984375 C-8.09447766 0.83824728 -4.90923159 0.01555547 0 0 Z M-4.31640625 8.3984375 C-4.64640625 10.0484375 -4.97640625 11.6984375 -5.31640625 13.3984375 C2.27359375 13.3984375 9.86359375 13.3984375 17.68359375 13.3984375 C17.35359375 11.7484375 17.02359375 10.0984375 16.68359375 8.3984375 C9.75359375 8.3984375 2.82359375 8.3984375 -4.31640625 8.3984375 Z " fill="#4A4A4A" transform="translate(284.31640625,63.6015625)"/>
<path d="M0 0 C3 0.1875 3 0.1875 5 1.1875 C5 8.7775 5 16.3675 5 24.1875 C12.11895498 24.41034452 12.11895498 24.41034452 19 23.1875 C21.5479449 20.51070308 23.22666859 17.76910739 25.11328125 14.6015625 C27 12.1875 27 12.1875 29.48046875 11.4609375 C31.75047889 11.49613146 33.78992285 11.68102399 36 12.1875 C35.51814387 16.9096901 33.30336567 19.88804372 30.4375 23.5 C30.01275391 24.04978516 29.58800781 24.59957031 29.15039062 25.16601562 C28.10818741 26.5126827 27.05516157 27.85096201 26 29.1875 C26.99 29.5175 27.98 29.8475 29 30.1875 C30.69100834 32.11432923 32.22741269 34.01157009 33.75 36.0625 C34.38615234 36.87654297 34.38615234 36.87654297 35.03515625 37.70703125 C36.234375 39.3046875 36.234375 39.3046875 38 42.1875 C37.67 43.1775 37.34 44.1675 37 45.1875 C29.69035533 45.67480964 29.69035533 45.67480964 26.875 43.6875 C25 41.1875 25 41.1875 23.921875 39.17578125 C22.44032199 36.6901637 21.26852996 35.00983013 19 33.1875 C14.31546778 32.19935649 9.7760948 32.08281847 5 32.1875 C5.01160156 33.04214844 5.02320313 33.89679688 5.03515625 34.77734375 C5.04417969 35.88207031 5.05320313 36.98679688 5.0625 38.125 C5.07410156 39.22714844 5.08570313 40.32929687 5.09765625 41.46484375 C5 44.1875 5 44.1875 4 45.1875 C0.5625 45.375 0.5625 45.375 -3 45.1875 C-5.68960183 42.49789817 -5.24959163 40.41642482 -5.27789307 36.7611084 C-5.2738446 35.88088013 -5.26979614 35.00065186 -5.265625 34.09375 C-5.26753845 33.1912854 -5.2694519 32.2888208 -5.27142334 31.35900879 C-5.27278559 29.44913454 -5.26908638 27.53925104 -5.26074219 25.62939453 C-5.25004321 22.6993335 -5.26063611 19.76988562 -5.2734375 16.83984375 C-5.27211591 14.98697781 -5.26955353 13.13411225 -5.265625 11.28125 C-5.26967346 10.40102173 -5.27372192 9.52079346 -5.27789307 8.6138916 C-5.21372262 0.32585766 -5.21372262 0.32585766 0 0 Z " fill="#494949" transform="translate(231,51.8125)"/>
<path d="M0 0 C1.02158203 0.00644531 2.04316406 0.01289062 3.09570312 0.01953125 C4.15080078 0.03628906 5.20589844 0.05304687 6.29296875 0.0703125 C7.36740234 0.07933594 8.44183594 0.08835938 9.54882812 0.09765625 C12.19293729 0.12115944 14.83658747 0.15401675 17.48046875 0.1953125 C17.48046875 2.8353125 17.48046875 5.4753125 17.48046875 8.1953125 C16.91537598 8.22036865 16.3502832 8.2454248 15.76806641 8.27124023 C13.21363133 8.38711206 10.65957325 8.50987787 8.10546875 8.6328125 C7.21601563 8.67212891 6.3265625 8.71144531 5.41015625 8.75195312 C4.13398438 8.81479492 4.13398438 8.81479492 2.83203125 8.87890625 C2.04650879 8.91556396 1.26098633 8.95222168 0.45166016 8.98999023 C-1.59476621 9.0862035 -1.59476621 9.0862035 -3.51953125 10.1953125 C-3.5445874 10.856521 -3.56964355 11.51772949 -3.59545898 12.19897461 C-3.71106227 15.17713555 -3.83394879 18.1549517 -3.95703125 21.1328125 C-3.99634766 22.17373047 -4.03566406 23.21464844 -4.07617188 24.28710938 C-4.11806641 25.27646484 -4.15996094 26.26582031 -4.203125 27.28515625 C-4.25811157 28.65982056 -4.25811157 28.65982056 -4.31420898 30.06225586 C-4.51953125 32.1953125 -4.51953125 32.1953125 -5.51953125 33.1953125 C-7.33203125 33.328125 -7.33203125 33.328125 -9.51953125 33.3203125 C-10.24140625 33.32289062 -10.96328125 33.32546875 -11.70703125 33.328125 C-13.51953125 33.1953125 -13.51953125 33.1953125 -14.51953125 32.1953125 C-14.82929406 28.30768237 -14.79805295 24.40625572 -14.83203125 20.5078125 C-14.87553711 18.87295898 -14.87553711 18.87295898 -14.91992188 17.20507812 C-14.96940512 10.95115667 -14.99322916 6.79095107 -10.51953125 2.1953125 C-6.89802579 0.406872 -4.01618789 -0.04487361 0 0 Z " fill="#4A4A4A" transform="translate(424.51953125,63.8046875)"/>
<path d="M0 0 C0.33 0.66 0.66 1.32 1 2 C0.0625 4.625 0.0625 4.625 -1 7 C0.32 7.66 1.64 8.32 3 9 C2.67 9.99 2.34 10.98 2 12 C0.0625 11.625 0.0625 11.625 -2 11 C-2.33 10.34 -2.66 9.68 -3 9 C-3.66 11.97 -4.32 14.94 -5 18 C-5.99 18 -6.98 18 -8 18 C-8 21.63 -8 25.26 -8 29 C-7.34 29 -6.68 29 -6 29 C-5.65388672 29.84884766 -5.65388672 29.84884766 -5.30078125 30.71484375 C-4.31565123 32.93041285 -3.33896798 34.97657555 -2 37 C0.6147267 38.12815365 0.6147267 38.12815365 3 38 C3.66 36.35 4.32 34.7 5 33 C8.465 32.505 8.465 32.505 12 32 C12.33 30.35 12.66 28.7 13 27 C14.63199918 27.34326182 16.25574543 27.72592026 17.875 28.125 C18.77992187 28.33382812 19.68484375 28.54265625 20.6171875 28.7578125 C23 30 23 30 24.3125 32.6875 C25.03922103 36.18897406 25.1979035 39.30272851 25.125 42.875 C25.10695312 44.02742188 25.08890625 45.17984375 25.0703125 46.3671875 C25.04710937 47.23601562 25.02390625 48.10484375 25 49 C21.99177637 50.30991003 20.76893353 49.92517346 17.57421875 48.890625 C16.27390369 48.35512318 14.97840141 47.8078127 13.6875 47.25 C13.04876953 46.98445313 12.41003906 46.71890625 11.75195312 46.4453125 C10.46613744 45.9085789 9.18362129 45.36387191 7.90454102 44.8112793 C6.64281249 44.2738195 5.37222876 43.75665725 4.09350586 43.26098633 C-2.45923587 40.67004323 -6.36578475 36.33948334 -9.4375 30.0625 C-11.1275314 20.86121792 -9.62186499 13.45046512 -4.3984375 5.58984375 C-2.97829457 3.68173702 -1.52749485 1.82281053 0 0 Z " fill="#0698CC" transform="translate(75,33)"/>
<path d="M0 0 C2.33944736 0.28730055 4.6739143 0.61936779 7 1 C7 1.66 7 2.32 7 3 C8.98 3 10.96 3 13 3 C13 3.66 13 4.32 13 5 C14.98 5 16.96 5 19 5 C19 6.32 19 7.64 19 9 C19.598125 9.20625 20.19625 9.4125 20.8125 9.625 C23.81018767 11.50926082 24.61361776 13.81132084 26 17 C24.68 16.67 23.36 16.34 22 16 C22.33 17.98 22.66 19.96 23 22 C22.01 22 21.02 22 20 22 C19.34 20.35 18.68 18.7 18 17 C17.67 17.66 17.34 18.32 17 19 C17.66 19.33 18.32 19.66 19 20 C18.34 20.66 17.68 21.32 17 22 C17 21.34 17 20.68 17 20 C16.21625 20.185625 15.4325 20.37125 14.625 20.5625 C12 21 12 21 10 20 C10.495 19.1028125 10.495 19.1028125 11 18.1875 C12.20787988 15.94613529 12.20787988 15.94613529 12 13 C11.01 13 10.02 13 9 13 C8.2884375 13.99 8.2884375 13.99 7.5625 15 C7.046875 15.66 6.53125 16.32 6 17 C4.68 17 3.36 17 2 17 C2 16.34 2 15.68 2 15 C0.68 14.67 -0.64 14.34 -2 14 C-1.85970581 11.8537974 -1.71261836 9.70803782 -1.5625 7.5625 C-1.48128906 6.36753906 -1.40007812 5.17257813 -1.31640625 3.94140625 C-1 1 -1 1 0 0 Z " fill="#059ED5" transform="translate(108,70)"/>
<path d="M0 0 C0.99 0.99 1.98 1.98 3 3 C5.62570704 3.25069913 5.62570704 3.25069913 8 3 C8.33 3.66 8.66 4.32 9 5 C8.34 5 7.68 5 7 5 C7 5.66 7 6.32 7 7 C7.66 7 8.32 7 9 7 C9.2475 7.78375 9.495 8.5675 9.75 9.375 C11.20780864 12.43639814 12.07993473 12.58706519 15 14 C16.23843794 16.95319818 16.04187157 17.87438528 15 21 C14.34 21 13.68 21 13 21 C13 20.34 13 19.68 13 19 C11.35 19 9.7 19 8 19 C7.67 20.65 7.34 22.3 7 24 C7.66 24.33 8.32 24.66 9 25 C8.67 26.65 8.34 28.3 8 30 C5.6875 30.6875 5.6875 30.6875 3 31 C0.11554972 29.29069613 -0.14708071 27.5432757 -1.1875 24.3125 C-1.5896875 22.6728125 -1.5896875 22.6728125 -2 21 C-2.66 21 -3.32 21 -4 21 C-4 17.37 -4 13.74 -4 10 C-3.01 10 -2.02 10 -1 10 C-0.67 6.7 -0.34 3.4 0 0 Z " fill="#059DD4" transform="translate(71,41)"/>
<path d="M0 0 C1 3 1 3 0.3125 5.3125 C-0.27829134 8.20604393 -0.27829134 8.20604393 1.6875 11.25 C4.04732172 14.05627447 4.55442089 14.56930261 8 15 C10.1875 15.8125 10.1875 15.8125 12 17 C12.75 19.125 12.75 19.125 13 21 C13.99 20.34 14.98 19.68 16 19 C16 18.01 16 17.02 16 16 C17.65 15.34 19.3 14.68 21 14 C19.65070536 17.83663072 17.92248975 20.65172569 15.375 23.8125 C14.74335937 24.60269531 14.11171875 25.39289063 13.4609375 26.20703125 C12.97882813 26.79871094 12.49671875 27.39039062 12 28 C5.8883335 26.31929171 0.75525774 23.41085052 -4 19.25 C-5.66392567 15.50616724 -5.73258032 12.00956908 -5 8 C-3.61856573 5.0980287 -1.94698328 2.55193881 0 0 Z " fill="#0C84AE" transform="translate(109,97)"/>
<path d="M0 0 C0.66 0 1.32 0 2 0 C2 0.66 2 1.32 2 2 C3.98 1.67 5.96 1.34 8 1 C8.33 2.65 8.66 4.3 9 6 C9.99 6 10.98 6 12 6 C12 7.65 12 9.3 12 11 C12.66 11 13.32 11 14 11 C14.26218749 14.14624993 14.24754367 15.61837017 12.5 18.3125 C12.005 18.869375 11.51 19.42625 11 20 C11 19.01 11 18.02 11 17 C9.68 17 8.36 17 7 17 C7 16.34 7 15.68 7 15 C5.68 15 4.36 15 3 15 C3 14.34 3 13.68 3 13 C2.236875 13.0825 1.47375 13.165 0.6875 13.25 C-2 13 -2 13 -3.8125 11.3125 C-5.17577792 8.65769564 -5.24535485 6.94425817 -5 4 C-3.1875 3.375 -3.1875 3.375 -1 3 C-0.01 3.66 0.98 4.32 2 5 C2.33 4.34 2.66 3.68 3 3 C2.01 3 1.02 3 0 3 C0 2.01 0 1.02 0 0 Z " fill="#02AEED" transform="translate(83,27)"/>
<path d="M0 0 C2 0 4 0 6 0 C8.03684712 4.07369424 8.0257259 6.58937864 7 11 C6.01 11.33 5.02 11.66 4 12 C4 12.66 4 13.32 4 14 C-0.05676492 14.04954711 -4.11341194 14.085789 -8.17041016 14.10986328 C-9.54967315 14.11990253 -10.92891496 14.13353677 -12.30810547 14.15087891 C-14.2938514 14.17521754 -16.2797545 14.18543255 -18.265625 14.1953125 C-20.05661621 14.21102295 -20.05661621 14.21102295 -21.88378906 14.22705078 C-24.85798164 14.01034762 -26.50318379 13.56186122 -29 12 C-25.75201257 10.91733752 -23.64103173 10.96563814 -20.23828125 11.12109375 C-18.56088867 11.19360352 -18.56088867 11.19360352 -16.84960938 11.26757812 C-15.09874023 11.35168945 -15.09874023 11.35168945 -13.3125 11.4375 C-12.13365234 11.48970703 -10.95480469 11.54191406 -9.74023438 11.59570312 C-6.82655906 11.72546194 -3.91321922 11.86043132 -1 12 C-1.18433594 11.07960938 -1.36867188 10.15921875 -1.55859375 9.2109375 C-2.06413317 5.53347373 -1.37711978 3.40229594 0 0 Z " fill="#444444" transform="translate(397,83)"/>
<path d="M0 0 C5.77065617 4.32799213 9.6307728 8.64375432 10.875 15.9375 C11.48499705 23.85221168 8.42790006 29.6454564 4 36 C2 34.8125 2 34.8125 0 33 C-0.561068 29.2595467 -0.14762184 28.22143276 2 25 C3.32 25 4.64 25 6 25 C5.67 22.36 5.34 19.72 5 17 C5.99 17 6.98 17 8 17 C6.68203796 12.38713287 4.86611786 8.85134588 2 5 C1.34 4.67 0.68 4.34 0 4 C0 2.68 0 1.36 0 0 Z " fill="#1C8EBA" transform="translate(127,75)"/>
<path d="M0 0 C3.12831843 1.11591855 6.25201049 2.24426242 9.375 3.375 C10.70917969 3.85066406 10.70917969 3.85066406 12.0703125 4.3359375 C12.92109375 4.6453125 13.771875 4.9546875 14.6484375 5.2734375 C15.43395996 5.55622559 16.21948242 5.83901367 17.02880859 6.13037109 C19 7 19 7 21 9 C19.35 9 17.7 9 16 9 C16 8.34 16 7.68 16 7 C14.02 7 12.04 7 10 7 C10 6.34 10 5.68 10 5 C7.69 5 5.38 5 3 5 C2.67 9.29 2.34 13.58 2 18 C2.99 18.33 3.98 18.66 5 19 C5 19.66 5 20.32 5 21 C8.65316671 19.75023244 9.78065836 19.32901247 12 16 C13.32 16.33 14.64 16.66 16 17 C15.67 18.32 15.34 19.64 15 21 C14.01 21 13.02 21 12 21 C11.938125 21.928125 11.87625 22.85625 11.8125 23.8125 C11 27 11 27 8.4375 28.875 C7.2309375 29.431875 7.2309375 29.431875 6 30 C7.875 25.25 7.875 25.25 9 23 C5.7 22.01 2.4 21.02 -1 20 C-0.91621094 19.13117188 -0.83242187 18.26234375 -0.74609375 17.3671875 C-0.64425781 16.21476562 -0.54242188 15.06234375 -0.4375 13.875 C-0.33308594 12.73804687 -0.22867188 11.60109375 -0.12109375 10.4296875 C-0.00402596 7.1140257 -0.42574607 4.25249705 -1 1 C-0.67 0.67 -0.34 0.34 0 0 Z " fill="#3599BF" transform="translate(105,66)"/>
<path d="M0 0 C0.33 0.66 0.66 1.32 1 2 C0.0625 4.625 0.0625 4.625 -1 7 C0.32 7.66 1.64 8.32 3 9 C2.67 9.99 2.34 10.98 2 12 C0.0625 11.625 0.0625 11.625 -2 11 C-2.33 10.34 -2.66 9.68 -3 9 C-3.66 11.97 -4.32 14.94 -5 18 C-5.99 18 -6.98 18 -8 18 C-8 21.63 -8 25.26 -8 29 C-7.34 29 -6.68 29 -6 29 C-5.73445313 29.55429687 -5.46890625 30.10859375 -5.1953125 30.6796875 C-4.84210938 31.40414062 -4.48890625 32.12859375 -4.125 32.875 C-3.77695313 33.59429687 -3.42890625 34.31359375 -3.0703125 35.0546875 C-1.07961128 38.67282329 1.24974517 39.61832717 5 41 C5 41.66 5 42.32 5 43 C0.17233522 42.06834539 -2.74723428 39.59992865 -6 36 C-9.63075918 30.35803311 -11.0955942 24.64064237 -10 18 C-8.06219628 11.01084276 -4.62778497 5.52249007 0 0 Z " fill="#24A3D8" transform="translate(75,33)"/>
<path d="M0 0 C0.99 0.33 1.98 0.66 3 1 C2.67 2.32 2.34 3.64 2 5 C2.66 5.33 3.32 5.66 4 6 C4.28875 5.360625 4.5775 4.72125 4.875 4.0625 C6 2 6 2 8 1 C6.9781501 3.98039555 6.02118693 5.97560293 3.9375 8.375 C1.56337704 11.59155369 1.37753519 14.07363398 1 18 C0 19 0 19 -2.28515625 19.09765625 C-3.65994141 19.08025391 -3.65994141 19.08025391 -5.0625 19.0625 C-5.98160156 19.05347656 -6.90070313 19.04445313 -7.84765625 19.03515625 C-8.55792969 19.02355469 -9.26820312 19.01195313 -10 19 C-9.67 16.36 -9.34 13.72 -9 11 C-8.67 11.66 -8.34 12.32 -8 13 C-6.35 13 -4.7 13 -3 13 C-3 13.66 -3 14.32 -3 15 C-2.34 15 -1.68 15 -1 15 C-1.45822468 11.53058454 -1.89131683 8.32604951 -3 5 C-1.5625 2.3125 -1.5625 2.3125 0 0 Z " fill="#1A9ACF" transform="translate(87,47)"/>
<path d="M0 0 C1.32 0.66 2.64 1.32 4 2 C3.01 2 2.02 2 1 2 C1 3.98 1 5.96 1 8 C13.54 8 26.08 8 39 8 C34.6943551 10.15282245 31.6461598 10.27558773 26.98828125 10.23046875 C25.83503609 10.22978142 25.83503609 10.22978142 24.65849304 10.2290802 C23.03883311 10.22606633 21.41917585 10.21820597 19.79956055 10.20581055 C17.31093173 10.18748845 14.82267378 10.18530142 12.33398438 10.18554688 C10.76041343 10.18063387 9.18684501 10.17480651 7.61328125 10.16796875 C6.49147209 10.16629951 6.49147209 10.16629951 5.34700012 10.16459656 C0.11607161 10.11607161 0.11607161 10.11607161 -1 9 C-1.1328125 7.1875 -1.1328125 7.1875 -1.125 5 C-1.12757813 4.278125 -1.13015625 3.55625 -1.1328125 2.8125 C-1 1 -1 1 0 0 Z " fill="#414141" transform="translate(178,87)"/>
<path d="M0 0 C1 3 1 3 0.5 5.4375 C-0.2089575 7.93444976 -0.2089575 7.93444976 0.6875 10 C1 12 1 12 -0.9375 14.75 C-1.618125 15.4925 -2.29875 16.235 -3 17 C-2.01 17 -1.02 17 0 17 C0.33 18.65 0.66 20.3 1 22 C-2.5579199 20.8140267 -3.27310955 20.28931514 -5 17 C-5.95952695 11.75871301 -5.32723051 7.95946244 -2.5 3.4375 C-1.6861422 2.27775263 -0.85939366 1.12641955 0 0 Z " fill="#1983B1" transform="translate(109,97)"/>
<path d="M0 0 C3.77545388 1.09068668 6.47043472 1.9083091 9 5 C7.35 5 5.7 5 4 5 C4 4.34 4 3.68 4 3 C3.34 3 2.68 3 2 3 C2 3.99 2 4.98 2 6 C2.99 6 3.98 6 5 6 C4.67 6.99 4.34 7.98 4 9 C3.01 8.34 2.02 7.68 1 7 C0.01 7 -0.98 7 -2 7 C-2.20086443 10.71599191 -2.1519437 11.77208445 0 15 C-0.99 15 -1.98 15 -3 15 C-4.6875 13 -4.6875 13 -6 11 C-4.34703566 6.90694544 -2.86453858 3.41016497 0 0 Z " fill="#28A7DF" transform="translate(81,24)"/>
<path d="M0 0 C2.0625 0.4375 2.0625 0.4375 4 1 C3.67 2.32 3.34 3.64 3 5 C2.01 5 1.02 5 0 5 C-0.061875 5.928125 -0.12375 6.85625 -0.1875 7.8125 C-1 11 -1 11 -3.5625 12.875 C-4.7690625 13.431875 -4.7690625 13.431875 -6 14 C-4.125 9.25 -4.125 9.25 -3 7 C-3.99 6.67 -4.98 6.34 -6 6 C-4 4 -2 2 0 0 Z " fill="#1997CF" transform="translate(117,82)"/>
<path d="M0 0 C0.33 0 0.66 0 1 0 C1.33 3.63 1.66 7.26 2 11 C2.66 11 3.32 11 4 11 C4.26554687 11.55429687 4.53109375 12.10859375 4.8046875 12.6796875 C5.15789062 13.40414062 5.51109375 14.12859375 5.875 14.875 C6.22304687 15.59429687 6.57109375 16.31359375 6.9296875 17.0546875 C8.92038872 20.67282329 11.24974517 21.61832717 15 23 C15 23.66 15 24.32 15 25 C10.17233522 24.06834539 7.25276572 21.59992865 4 18 C0.19184004 12.08236368 -0.43961157 6.92388218 0 0 Z " fill="#3A8EAE" transform="translate(65,51)"/>
<path d="M0 0 C4.01840251 2.06350399 6.15903905 3.83361468 8 8 C8.58393336 12.67146691 7.69516915 15.18184371 5 19 C3.53273202 15.18510326 4.56663581 12.70988378 6 9 C5.34 9 4.68 9 4 9 C4 7.35 4 5.7 4 4 C3.01 4 2.02 4 1 4 C0.67 2.68 0.34 1.36 0 0 Z " fill="#479EC7" transform="translate(91,29)"/>
<path d="M0 0 C0.66 0.33 1.32 0.66 2 1 C2 1.99 2 2.98 2 4 C2.33 3.67 2.66 3.34 3 3 C5.33297433 2.95907063 7.66705225 2.95758277 10 3 C8.75 5.5 8.75 5.5 7 8 C5.68 8 4.36 8 3 8 C3 7.34 3 6.68 3 6 C1.68 5.67 0.36 5.34 -1 5 C-0.67 3.35 -0.34 1.7 0 0 Z " fill="#0499CB" transform="translate(107,79)"/>
<path d="M0 0 C1.64696604 0.4752588 3.29254728 0.95531891 4.9375 1.4375 C6.31228516 1.83775391 6.31228516 1.83775391 7.71484375 2.24609375 C10 3 10 3 11 4 C11.04063832 5.66617115 11.042721 7.33388095 11 9 C7.5625 7.6875 7.5625 7.6875 4 6 C3.67 5.01 3.34 4.02 3 3 C1.50014391 1.33289654 1.50014391 1.33289654 0 0 Z " fill="#3096C2" transform="translate(88,60)"/>
<path d="M0 0 C4.74099926 3.55574944 7.53149116 6.56928056 10 12 C9.59765625 14.21484375 9.59765625 14.21484375 9 16 C8.51789063 15.21753906 8.03578125 14.43507813 7.5390625 13.62890625 C6.90742188 12.61699219 6.27578125 11.60507813 5.625 10.5625 C4.99851563 9.55316406 4.37203125 8.54382813 3.7265625 7.50390625 C2.24183698 4.91988937 2.24183698 4.91988937 0 4 C0 2.68 0 1.36 0 0 Z " fill="#3A96BC" transform="translate(127,75)"/>
<path d="M0 0 C0 4.03381023 -1.59573562 5.49433637 -4 8.6875 C-4.7425 9.68136719 -5.485 10.67523438 -6.25 11.69921875 C-7.11625 12.83810547 -7.11625 12.83810547 -8 14 C-9.32 13.34 -10.64 12.68 -12 12 C-10.68 12 -9.36 12 -8 12 C-7.8453125 10.824375 -7.8453125 10.824375 -7.6875 9.625 C-7 7 -7 7 -4 5 C-4 4.01 -4 3.02 -4 2 C-2.68 1.34 -1.36 0.68 0 0 Z " fill="#297C9A" transform="translate(129,111)"/>
<path d="M0 0 C2.125 0.375 2.125 0.375 4 1 C3.67 1.99 3.34 2.98 3 4 C3.99 4.33 4.98 4.66 6 5 C4.71034824 6.37562854 3.37310707 7.70766393 2 9 C1.34 9 0.68 9 0 9 C-1 6 -1 6 0 3 C-0.66 2.67 -1.32 2.34 -2 2 C-1.34 1.34 -0.68 0.68 0 0 Z M2 4 C3 6 3 6 3 6 Z " fill="#4E4E4E" transform="translate(258,64)"/>
<path d="M0 0 C0.91058531 3.07322544 1.08886184 5.80097361 1 9 C0.01 9 -0.98 9 -2 9 C-2 11.64 -2 14.28 -2 17 C-2.33 17 -2.66 17 -3 17 C-3.08160748 15.10489301 -3.13946459 13.20875496 -3.1875 11.3125 C-3.22230469 10.25675781 -3.25710937 9.20101562 -3.29296875 8.11328125 C-2.96666615 4.64577232 -1.99030125 2.81567552 0 0 Z " fill="#2A9AC8" transform="translate(69,42)"/>
<path d="M0 0 C0.33 0 0.66 0 1 0 C1 4.29 1 8.58 1 13 C-3.06109369 14.01527342 -3.66966838 14.05430484 -7.25 12.5625 C-7.95640625 12.27503906 -8.6628125 11.98757812 -9.390625 11.69140625 C-9.92171875 11.46324219 -10.4528125 11.23507813 -11 11 C-7.34811918 9.92825237 -4.73567172 10.23588533 -1 11 C-0.67 7.37 -0.34 3.74 0 0 Z " fill="#3A8AAD" transform="translate(99,69)"/>
<path d="M0 0 C0 1.98 0 3.96 0 6 C-0.33 5.34 -0.66 4.68 -1 4 C-1.99 4 -2.98 4 -4 4 C-4.33 4.66 -4.66 5.32 -5 6 C-5.66 5.67 -6.32 5.34 -7 5 C-7 3.68 -7 2.36 -7 1 C-2.25 0 -2.25 0 0 0 Z " fill="#1597CD" transform="translate(99,72)"/>
<path d="M0 0 C-0.33 0.99 -0.66 1.98 -1 3 C-2.11375 2.979375 -3.2275 2.95875 -4.375 2.9375 C-7.83215921 2.73619282 -7.83215921 2.73619282 -10 4 C-12.125 3.0625 -12.125 3.0625 -14 2 C-9.126739 0.4087311 -5.19209404 -0.21192221 0 0 Z " fill="#0E95C6" transform="translate(89,70)"/>
<path d="M0 0 C0.66 0 1.32 0 2 0 C2 3.63 2 7.26 2 11 C1.01 10.34 0.02 9.68 -1 9 C-1 8.34 -1 7.68 -1 7 C-1.66 7 -2.32 7 -3 7 C-2 4 -2 4 0 2 C0 1.34 0 0.68 0 0 Z " fill="#1398CD" transform="translate(70,55)"/>
<path d="M0 0 C1.20628008 2.33214148 2.1654738 4.49642139 3 7 C1.68 8.32 0.36 9.64 -1 11 C-2.0257259 6.58937864 -2.03684712 4.07369424 0 0 Z " fill="#088CB6" transform="translate(110,96)"/>
<path d="M0 0 C0.33 0 0.66 0 1 0 C1 2.31 1 4.62 1 7 C1.99 7.33 2.98 7.66 4 8 C4.33 8.99 4.66 9.98 5 11 C2.69 10.34 0.38 9.68 -2 9 C-1.34 6.03 -0.68 3.06 0 0 Z " fill="#3490B5" transform="translate(106,77)"/>
<path d="M0 0 C0.66 0 1.32 0 2 0 C2.66 0.66 3.32 1.32 4 2 C4.99 1.67 5.98 1.34 7 1 C6.79375 1.61875 6.5875 2.2375 6.375 2.875 C6.25125 3.57625 6.1275 4.2775 6 5 C6.66 5.66 7.32 6.32 8 7 C5.03 6.505 5.03 6.505 2 6 C1.34 4.02 0.68 2.04 0 0 Z " fill="#434343" transform="translate(444,89)"/>
<path d="M0 0 C0.99 0 1.98 0 3 0 C2.75 2.375 2.75 2.375 2 5 C-0.0625 6.3125 -0.0625 6.3125 -2 7 C-2 3 -2 3 0 0 Z " fill="#1794C9" transform="translate(122,90)"/>
<path d="M0 0 C0.33 0 0.66 0 1 0 C1.33 2.97 1.66 5.94 2 9 C2.99 9 3.98 9 5 9 C5.33 10.65 5.66 12.3 6 14 C2.4420801 12.8140267 1.72689045 12.28931514 0 9 C-0.24969023 5.98290978 -0.17422733 3.01994032 0 0 Z " fill="#2D7C9A" transform="translate(104,105)"/>
<path d="M0 0 C1.98 0.495 1.98 0.495 4 1 C3.01 1 2.02 1 1 1 C1.14230808 2.41702513 1.28900746 3.8336096 1.4375 5.25 C1.55931641 6.43335937 1.55931641 6.43335937 1.68359375 7.640625 C1.97634993 9.82364639 2.42064419 11.8773182 3 14 C0 12 0 12 -1 9 C-1.2295082 2.45901639 -1.2295082 2.45901639 0 0 Z " fill="#454545" transform="translate(41,83)"/>
<path d="M0 0 C0.99 0.33 1.98 0.66 3 1 C2.67 2.65 2.34 4.3 2 6 C0.35 6.33 -1.3 6.66 -3 7 C-1.125 1.125 -1.125 1.125 0 0 Z " fill="#1FA2DE" transform="translate(87,47)"/>
<path d="M0 0 C0 0.99 0 1.98 0 3 C-0.66 3 -1.32 3 -2 3 C-2.12375 4.134375 -2.2475 5.26875 -2.375 6.4375 C-2.58125 7.613125 -2.7875 8.78875 -3 10 C-3.99 10.495 -3.99 10.495 -5 11 C-5.3125 8.3125 -5.3125 8.3125 -5 5 C-2.5 2.125 -2.5 2.125 0 0 Z " fill="#434343" transform="translate(369,77)"/>
<path d="M0 0 C0.66 0 1.32 0 2 0 C2 0.66 2 1.32 2 2 C2.66 2.33 3.32 2.66 4 3 C-0.75 6 -0.75 6 -3 6 C-3 4.68 -3 3.36 -3 2 C-2.01 2 -1.02 2 0 2 C0 1.34 0 0.68 0 0 Z " fill="#1E9DD4" transform="translate(113,71)"/>
<path d="M0 0 C0.66 0 1.32 0 2 0 C2 1.32 2 2.64 2 4 C2.66 4 3.32 4 4 4 C4.33 5.65 4.66 7.3 5 9 C4.01 9 3.02 9 2 9 C1.34 6.03 0.68 3.06 0 0 Z " fill="#129BD0" transform="translate(126,83)"/>
<path d="M0 0 C1.32 0 2.64 0 4 0 C4.3125 2.3125 4.3125 2.3125 4 5 C1.5 6.8125 1.5 6.8125 -1 8 C0.875 3.25 0.875 3.25 2 1 C1.34 0.67 0.68 0.34 0 0 Z " fill="#348FB3" transform="translate(112,88)"/>
<path d="M0 0 C0.66 0 1.32 0 2 0 C1.67 1.98 1.34 3.96 1 6 C-0.65 5.67 -2.3 5.34 -4 5 C-2.71937515 3.2925002 -1.38232443 1.62626404 0 0 Z " fill="#414141" transform="translate(93,112)"/>
<path d="M0 0 C3 3.75 3 3.75 3 6 C1.35 6.33 -0.3 6.66 -2 7 C-2.33 5.68 -2.66 4.36 -3 3 C-2.01 3 -1.02 3 0 3 C0 2.01 0 1.02 0 0 Z " fill="#1CA3D0" transform="translate(135,89)"/>
<path d="M0 0 C3.39641834 2.26427889 4.84438646 4.58075094 7 8 C5.1875 7.8125 5.1875 7.8125 3 7 C0 2.82142857 0 2.82142857 0 0 Z " fill="#444444" transform="translate(315,87)"/>
<path d="M0 0 C0.66 0.33 1.32 0.66 2 1 C0.35 2.98 -1.3 4.96 -3 7 C-3.66 5.68 -4.32 4.36 -5 3 C-4.360625 2.690625 -3.72125 2.38125 -3.0625 2.0625 C-1.06389179 1.1654837 -1.06389179 1.1654837 0 0 Z " fill="#3F4040" transform="translate(147,84)"/>
<path d="M0 0 C1.65 0 3.3 0 5 0 C5 0.66 5 1.32 5 2 C4.34 2 3.68 2 3 2 C3 2.66 3 3.32 3 4 C1.68 4 0.36 4 -1 4 C-0.67 2.68 -0.34 1.36 0 0 Z " fill="#129BD3" transform="translate(113,78)"/>
<path d="M0 0 C0.99 0 1.98 0 3 0 C2.6875 1.9375 2.6875 1.9375 2 4 C1.01 4.33 0.02 4.66 -1 5 C-2.66710346 6.49985609 -2.66710346 6.49985609 -4 8 C-2.87548273 5.0280615 -1.77706209 2.66559313 0 0 Z " fill="#464546" transform="translate(54,63)"/>
<path d="M0 0 C0.99 0.33 1.98 0.66 3 1 C2.1875 3.4375 2.1875 3.4375 1 6 C0.01 6.33 -0.98 6.66 -2 7 C-1.42415568 4.61435923 -0.77772405 2.33317216 0 0 Z " fill="#078ABB" transform="translate(124,111)"/>
<path d="M0 0 C3.77545388 1.09068668 6.47043472 1.9083091 9 5 C7.35 5 5.7 5 4 5 C3.67 4.34 3.34 3.68 3 3 C2.01 2.67 1.02 2.34 0 2 C0 1.34 0 0.68 0 0 Z " fill="#33A0C2" transform="translate(81,24)"/>
<path d="M0 0 C2.4375 1.125 2.4375 1.125 5 3 C5.8125 6.1875 5.8125 6.1875 6 9 C5.34 9 4.68 9 4 9 C4 7.35 4 5.7 4 4 C3.01 4 2.02 4 1 4 C0.67 2.68 0.34 1.36 0 0 Z " fill="#31A9D6" transform="translate(91,29)"/>
</svg>
