<svg width="103" height="13" viewBox="0 0 103 13" fill="none" xmlns="http://www.w3.org/2000/svg">
<path d="M97.704 10.006C97.704 9.95 97.704 9.902 97.704 9.862L97.728 9.406C97.768 9.15 97.816 8.906 97.872 8.674C97.936 8.434 98.044 8.202 98.196 7.978C98.284 7.81 98.416 7.614 98.592 7.39C98.776 7.158 98.932 6.93 99.06 6.706C99.188 6.482 99.248 6.274 99.24 6.082C99.232 5.89 99.084 5.742 98.796 5.638C98.612 5.558 98.468 5.542 98.364 5.59C98.268 5.63 98.184 5.698 98.112 5.794C98.04 5.882 97.972 5.978 97.908 6.082C97.844 6.186 97.76 6.258 97.656 6.298C97.408 6.322 97.16 6.326 96.912 6.31C96.672 6.294 96.432 6.282 96.192 6.274V6.262C96.208 5.958 96.276 5.662 96.396 5.374C96.516 5.078 96.68 4.814 96.888 4.582C97.096 4.35 97.34 4.162 97.62 4.018C97.9 3.866 98.212 3.782 98.556 3.766C98.924 3.734 99.272 3.77 99.6 3.874C99.936 3.978 100.224 4.138 100.464 4.354C100.712 4.57 100.9 4.83 101.028 5.134C101.156 5.438 101.2 5.766 101.16 6.118C101.128 6.374 101.06 6.606 100.956 6.814C100.852 7.022 100.732 7.214 100.596 7.39C100.468 7.566 100.344 7.71 100.224 7.822C100.112 7.926 99.996 8.058 99.876 8.218C99.708 8.45 99.58 8.682 99.492 8.914C99.412 9.146 99.344 9.402 99.288 9.682C99.272 9.746 99.256 9.814 99.24 9.886C99.224 9.958 99.224 10.026 99.24 10.09V10.102C98.992 10.134 98.744 10.142 98.496 10.126C98.256 10.11 98.012 10.11 97.764 10.126H97.752C97.72 10.094 97.704 10.054 97.704 10.006ZM99.132 12.25H99.108L97.752 12.238H97.716C97.7 12.15 97.688 12.038 97.68 11.902C97.68 11.766 97.68 11.63 97.68 11.494C97.688 11.358 97.692 11.23 97.692 11.11C97.7 10.99 97.704 10.902 97.704 10.846C97.784 10.814 97.896 10.79 98.04 10.774C98.192 10.758 98.344 10.75 98.496 10.75C98.648 10.75 98.788 10.758 98.916 10.774C99.052 10.782 99.148 10.798 99.204 10.822C99.204 10.83 99.2 10.898 99.192 11.026C99.184 11.146 99.176 11.286 99.168 11.446C99.16 11.606 99.152 11.762 99.144 11.914C99.136 12.066 99.132 12.17 99.132 12.226V12.238V12.25Z" fill="#3FC1E6"/>
<path d="M2.64205 12L0.255682 3.27273H1.32955L3.15341 10.3807H3.23864L5.09659 3.27273H6.28977L8.14773 10.3807H8.23295L10.0568 3.27273H11.1307L8.74432 12H7.65341L5.72727 5.04545H5.65909L3.73295 12H2.64205ZM12.4474 12V3.27273H13.5043V7.15909H18.1577V3.27273H19.2145V12H18.1577V8.09659H13.5043V12H12.4474ZM20.5803 3.27273H21.7905L24.2109 7.34659H24.3132L26.7337 3.27273H27.9439L24.7905 8.40341V12H23.7337V8.40341L20.5803 3.27273Z" fill="#1C77AB"/>
<path d="M41.9129 9.6C41.9129 10.04 41.8049 10.444 41.5889 10.812C41.3729 11.172 41.0849 11.46 40.7249 11.676C40.3649 11.892 39.9609 12 39.5129 12H32.2169V10.8H39.5129C39.8489 10.8 40.1329 10.684 40.3649 10.452C40.5969 10.212 40.7129 9.928 40.7129 9.6C40.7129 9.272 40.5969 8.992 40.3649 8.76C40.1329 8.52 39.8489 8.4 39.5129 8.4H34.6169C34.1769 8.4 33.7729 8.292 33.4049 8.076C33.0449 7.86 32.7569 7.572 32.5409 7.212C32.3249 6.844 32.2169 6.44 32.2169 6C32.2169 5.56 32.3249 5.16 32.5409 4.8C32.7569 4.432 33.0449 4.14 33.4049 3.924C33.7729 3.708 34.1769 3.6 34.6169 3.6H41.3129V4.8H34.6169C34.2889 4.8 34.0049 4.92 33.7649 5.16C33.5329 5.392 33.4169 5.672 33.4169 6C33.4169 6.328 33.5329 6.612 33.7649 6.852C34.0049 7.084 34.2889 7.2 34.6169 7.2H39.5129C39.9609 7.2 40.3649 7.308 40.7249 7.524C41.0849 7.74 41.3729 8.032 41.5889 8.4C41.8049 8.76 41.9129 9.16 41.9129 9.6ZM50.9807 12H49.2647L45.7607 9.18L44.3687 10.32V12H43.1687V3H44.3687V9.048L48.7367 5.4H50.3687L46.6367 8.46L50.9807 12ZM58.8057 7.5C58.8057 7.884 58.7097 8.236 58.5177 8.556C58.3337 8.876 58.0817 9.132 57.7617 9.324C57.4497 9.508 57.0977 9.6 56.7057 9.6H52.1097C52.2777 9.952 52.5257 10.24 52.8537 10.464C53.1897 10.688 53.5657 10.8 53.9817 10.8H57.9057V12H53.9817C53.5257 12 53.0977 11.916 52.6977 11.748C52.3057 11.572 51.9577 11.332 51.6537 11.028C51.3577 10.724 51.1257 10.376 50.9577 9.984C50.7897 9.584 50.7057 9.156 50.7057 8.7C50.7057 8.244 50.7897 7.82 50.9577 7.428C51.1257 7.028 51.3577 6.676 51.6537 6.372C51.9577 6.068 52.3057 5.832 52.6977 5.664C53.0977 5.488 53.5257 5.4 53.9817 5.4H56.7057C57.0977 5.4 57.4497 5.496 57.7617 5.688C58.0817 5.872 58.3337 6.124 58.5177 6.444C58.7097 6.756 58.8057 7.108 58.8057 7.5ZM56.7057 8.4C56.9537 8.4 57.1657 8.312 57.3417 8.136C57.5177 7.96 57.6057 7.748 57.6057 7.5C57.6057 7.252 57.5177 7.04 57.3417 6.864C57.1657 6.688 56.9537 6.6 56.7057 6.6H53.9817C53.6297 6.6 53.3057 6.68 53.0097 6.84C52.7217 7 52.4817 7.216 52.2897 7.488C52.0977 7.76 51.9777 8.064 51.9297 8.4H56.7057ZM67.3411 12H66.1411V6.6H62.8411C62.4571 6.6 62.1091 6.696 61.7971 6.888C61.4851 7.072 61.2331 7.324 61.0411 7.644C60.8571 7.964 60.7651 8.316 60.7651 8.7C60.7651 9.084 60.8571 9.436 61.0411 9.756C61.2331 10.068 61.4851 10.32 61.7971 10.512C62.1091 10.696 62.4571 10.792 62.8411 10.8H65.5411V12H62.8411C62.3851 12 61.9571 11.916 61.5571 11.748C61.1651 11.572 60.8171 11.332 60.5131 11.028C60.2171 10.724 59.9851 10.376 59.8171 9.984C59.6491 9.584 59.5651 9.156 59.5651 8.7C59.5651 8.244 59.6491 7.82 59.8171 7.428C59.9851 7.028 60.2171 6.676 60.5131 6.372C60.8171 6.068 61.1651 5.832 61.5571 5.664C61.9571 5.488 62.3851 5.4 62.8411 5.4H66.1411V3H67.3411V12ZM76.5791 12H70.5791C70.1951 12 69.8431 11.908 69.5231 11.724C69.2031 11.532 68.9471 11.28 68.7551 10.968C68.5711 10.648 68.4791 10.292 68.4791 9.9C68.4791 9.508 68.5711 9.156 68.7551 8.844C68.9471 8.524 69.2031 8.272 69.5231 8.088C69.8431 7.896 70.1951 7.8 70.5791 7.8H74.7791V9H70.5791C70.3311 9 70.1191 9.088 69.9431 9.264C69.7671 9.44 69.6791 9.652 69.6791 9.9C69.6791 10.148 69.7671 10.36 69.9431 10.536C70.1191 10.712 70.3311 10.8 70.5791 10.8H75.3791V7.5C75.3791 7.252 75.2911 7.04 75.1151 6.864C74.9391 6.688 74.7271 6.6 74.4791 6.6H69.6791V5.4H74.4791C74.8711 5.4 75.2231 5.496 75.5351 5.688C75.8551 5.872 76.1071 6.124 76.2911 6.444C76.4831 6.756 76.5791 7.108 76.5791 7.5V12ZM84.8066 6.6H80.3066C80.0586 6.6 79.8466 6.688 79.6706 6.864C79.4946 7.04 79.4066 7.252 79.4066 7.5V12H78.2066V7.5C78.2066 7.108 78.2986 6.756 78.4826 6.444C78.6746 6.124 78.9306 5.872 79.2506 5.688C79.5706 5.496 79.9226 5.4 80.3066 5.4H84.8066V6.6ZM92.8799 12H86.8799C86.4959 12 86.1439 11.908 85.8239 11.724C85.5039 11.532 85.2479 11.28 85.0559 10.968C84.8719 10.648 84.7799 10.292 84.7799 9.9C84.7799 9.508 84.8719 9.156 85.0559 8.844C85.2479 8.524 85.5039 8.272 85.8239 8.088C86.1439 7.896 86.4959 7.8 86.8799 7.8H91.0799V9H86.8799C86.6319 9 86.4199 9.088 86.2439 9.264C86.0679 9.44 85.9799 9.652 85.9799 9.9C85.9799 10.148 86.0679 10.36 86.2439 10.536C86.4199 10.712 86.6319 10.8 86.8799 10.8H91.6799V7.5C91.6799 7.252 91.5919 7.04 91.4159 6.864C91.2399 6.688 91.0279 6.6 90.7799 6.6H85.9799V5.4H90.7799C91.1719 5.4 91.5239 5.496 91.8359 5.688C92.1559 5.872 92.4079 6.124 92.5919 6.444C92.7839 6.756 92.8799 7.108 92.8799 7.5V12Z" fill="#4D4D4D"/>
<path d="M99.6944 6.984C99.8624 6.768 99.9944 6.576 100.09 6.408C100.186 6.24 100.234 6.08 100.234 5.928C100.234 5.76 100.17 5.628 100.042 5.532C99.9144 5.428 99.7344 5.376 99.5024 5.376C99.4144 5.408 99.3464 5.452 99.2984 5.508C99.2504 5.556 99.1904 5.628 99.1184 5.724C99.0304 5.86 98.9344 5.964 98.8304 6.036C98.7344 6.108 98.5744 6.144 98.3504 6.144C98.0944 6.144 97.8464 6.132 97.6064 6.108C97.3744 6.084 97.2384 6.052 97.1984 6.012C97.1984 5.556 97.3184 5.132 97.5584 4.74C97.8064 4.34 98.1304 4.024 98.5304 3.792C98.9384 3.552 99.3664 3.432 99.8144 3.432C100.222 3.432 100.618 3.52 101.002 3.696C101.386 3.872 101.698 4.124 101.938 4.452C102.178 4.78 102.298 5.164 102.298 5.604C102.298 6.148 102.078 6.708 101.638 7.284C101.598 7.332 101.482 7.464 101.29 7.68C101.034 7.952 100.858 8.176 100.762 8.352C100.706 8.456 100.658 8.58 100.618 8.724C100.578 8.86 100.542 8.992 100.51 9.12C100.47 9.352 100.418 9.536 100.354 9.672V9.804C100.362 9.812 100.366 9.828 100.366 9.852C100.326 9.916 100.178 9.948 99.9224 9.948L99.4784 9.936C99.3824 9.928 99.2384 9.924 99.0464 9.924C98.8944 9.924 98.7984 9.912 98.7584 9.888C98.7264 9.864 98.7104 9.796 98.7104 9.684C98.7104 9.58 98.7184 9.4 98.7344 9.144C98.7904 8.768 98.8744 8.44 98.9864 8.16C99.1064 7.88 99.2784 7.576 99.5024 7.248L99.6944 6.984ZM98.8544 9.156C98.8544 9.204 98.8464 9.28 98.8304 9.384C98.8144 9.48 98.8064 9.564 98.8064 9.636C98.8064 9.692 98.8144 9.752 98.8304 9.816L99.8024 9.828C99.9944 9.828 100.138 9.82 100.234 9.804C100.226 9.788 100.222 9.764 100.222 9.732C100.222 9.468 100.286 9.172 100.414 8.844C100.55 8.508 100.71 8.208 100.894 7.944C100.982 7.824 101.094 7.696 101.23 7.56C101.374 7.416 101.478 7.3 101.542 7.212C101.966 6.636 102.178 6.1 102.178 5.604C102.178 5.196 102.062 4.836 101.83 4.524C101.606 4.212 101.31 3.976 100.942 3.816C100.582 3.648 100.21 3.564 99.8264 3.564C99.4024 3.564 98.9984 3.68 98.6144 3.912C98.2304 4.136 97.9184 4.432 97.6784 4.8C97.4384 5.168 97.3184 5.556 97.3184 5.964C97.4384 5.964 97.5824 5.976 97.7504 6C97.8224 6.008 97.9064 6.016 98.0024 6.024C98.1064 6.032 98.2264 6.036 98.3624 6.036C98.5544 6.036 98.6864 6.016 98.7584 5.976C98.8384 5.928 98.9264 5.82 99.0224 5.652C99.1024 5.524 99.1744 5.428 99.2384 5.364C99.3104 5.292 99.3944 5.256 99.4904 5.256C99.7704 5.256 99.9864 5.332 100.138 5.484C100.29 5.628 100.366 5.776 100.366 5.928C100.366 6.096 100.306 6.284 100.186 6.492C100.066 6.692 99.9064 6.92 99.7064 7.176C99.5544 7.368 99.4504 7.512 99.3944 7.608C99.2344 7.88 99.1144 8.132 99.0344 8.364C98.9624 8.596 98.9024 8.868 98.8544 9.18V9.156ZM98.7824 12.048C98.7024 12.016 98.6624 11.848 98.6624 11.544C98.6624 11.424 98.6704 11.244 98.6864 11.004C98.7024 10.812 98.7104 10.68 98.7104 10.608L98.7464 10.536C98.8264 10.504 98.9424 10.476 99.0944 10.452C99.2544 10.428 99.4184 10.416 99.5864 10.416C100.018 10.416 100.266 10.476 100.33 10.596C100.282 10.892 100.258 11.36 100.258 12C100.218 12.04 100.198 12.06 100.198 12.06L98.8184 12.048H98.7824ZM100.138 11.94C100.138 11.884 100.138 11.712 100.138 11.424C100.138 11.136 100.158 10.864 100.198 10.608C100.03 10.56 99.8504 10.536 99.6584 10.536C99.4264 10.536 99.1504 10.568 98.8304 10.632C98.8304 10.704 98.8224 10.844 98.8064 11.052C98.7824 11.22 98.7704 11.392 98.7704 11.568C98.7704 11.72 98.7864 11.84 98.8184 11.928L100.138 11.94Z" fill="#0C2A67"/>
</svg>
